<svg width="451" height="363" viewBox="0 0 451 363" fill="none" xmlns="http://www.w3.org/2000/svg">
<path d="M433.18 31.7323C454.315 49.5052 457.04 81.0459 439.268 102.181C421.495 123.315 389.954 126.04 368.819 108.268C347.685 90.4948 344.959 58.9541 362.732 37.8194C380.505 16.6848 412.046 13.9595 433.18 31.7323Z" fill="#F2994A"/>
<path d="M22.2613 119.039C-5.65087 93.5026 -7.57644 50.1736 17.9604 22.2614C43.4973 -5.65081 86.8264 -7.57638 114.739 17.9605C142.651 43.4974 141.023 102.339 176.5 135C208 164 238.833 161.167 251.5 164C306.452 164 351 208.548 351 263.5C351 318.452 306.452 363 251.5 363C196.548 363 152 318.452 152 263.5C148.667 247 136.548 206.6 114.739 177C92.9294 147.4 46.5 141.215 22.2613 119.039Z" fill="#F2994A"/>
</svg>
